<svg xmlns="http://www.w3.org/2000/svg" xml:space="preserve" viewBox="0 0 250 118.9">
  <path fill="#f9f9f9" d="M0 0h250v119H0z"/>
  <path fill="#8fa9fe" d="M139.7 61.3h52.6V119h-52.6z"/>
  <path fill="#cbffce" d="M0 0h122v59.4H0z"/>
  <path fill="#dda2ff" d="M186.3 33.2H250v31.4h-63.7z"/>
  <path fill="#79bafe" d="M186.3 0H250v37.6h-63.7z"/>
  <path fill="#966cff" d="M186.3 61.5H250v57.4h-63.7z"/>
  <path fill="#fbbb00" fill-opacity=".6" d="M0 40.6h46.9v78.3H0z"/>
  <path fill="#ff10de" fill-opacity=".5" d="M41.3 57.8h117v61h-117z"/>
  <path fill="#0cdaff" fill-opacity=".4" d="M112.9 0h73.4v37.6H113z"/>
  <path fill="#ffff08" fill-opacity=".5" d="M98.8 18.6h93.5V73H98.8z"/>
  <path fill="#ff1919" fill-opacity=".2" d="M12 40.6h77.9v50.7h-78z"/>
  <path fill="#ffff08" fill-opacity=".3" d="M0 0h16.7v70.4H0z"/>
  <path fill="#242442" d="M18.4 58c-1.1 0-2-.2-2.5-.8-.5-.7-.7-1.5-.5-2.6l4.3-27.1c.2-1 .5-1.8 1-2.2.7-.5 1.5-.8 2.5-.8h7.7c5.4 0 9.5 1.3 12.4 3.8a13 13 0 0 1 4.3 10.5c0 2.7-.3 5.3-1.1 7.6a17 17 0 0 1-9.7 10.2 22 22 0 0 1-8.4 1.5zm3.3-5h6.8a15 15 0 0 0 5.8-1c1.6-.7 2.9-1.7 4-3a12 12 0 0 0 2.2-4.5c.5-1.7.8-3.6.8-5.6 0-3-1-5.3-2.7-7-1.7-1.5-4.2-2.3-7.7-2.3h-5.4zm33.5 14c-.7 0-1.3-.1-1.7-.5-.5-.3-.7-.8-.7-1.4 0-.5.1-1.1.5-1.7l4.5-7.5-.3 2.5L52 38.5a4 4 0 0 1-.1-2c.1-.7.5-1.2 1-1.6.4-.3 1-.5 1.8-.5s1.4.2 1.9.6c.4.4.7 1.1 1 2.1L61.4 53h-1.5l9.3-16.3a9 9 0 0 1 1.4-1.7c.5-.3 1.1-.5 1.9-.5s1.3.2 1.7.5c.5.4.7.8.7 1.4a3 3 0 0 1-.4 1.8L58.5 65c-.5.8-1 1.3-1.4 1.6a3 3 0 0 1-1.9.5zm29.5-8.4a20.1 20.1 0 0 1-8.1-1.7c-.6-.3-1-.7-1.3-1.1l-.3-1.4c0-.5.3-.9.5-1.2.3-.3.7-.5 1.1-.6.5-.1 1 0 1.6.2a14.2 14.2 0 0 0 6.5 1.6 6 6 0 0 0 3.4-.8c.8-.6 1.2-1.4 1.2-2.3a2 2 0 0 0-.7-1.6c-.4-.4-1-.6-2-.8l-4.3-1c-1.8-.3-3.1-1-4.1-2-1-1-1.5-2.3-1.5-3.9 0-1.4.4-2.7 1.2-3.8.9-1.2 2-2.1 3.6-2.8a15.5 15.5 0 0 1 12.8.7c.6.3 1 .7 1.2 1.2.2.4.2.9.2 1.3-.1.4-.3.8-.6 1.1a2 2 0 0 1-1.1.5c-.5 0-1 0-1.6-.4a12.5 12.5 0 0 0-5.5-1.3 6 6 0 0 0-3.5 1c-.9.5-1.3 1.2-1.3 2.2 0 .6.2 1 .6 1.5.3.4 1 .7 1.7.8l4.4 1c1.9.4 3.3 1 4.3 2a5 5 0 0 1 1.6 3.9 7 7 0 0 1-2.8 5.7 12 12 0 0 1-7.2 2zM100 67c-1 0-1.6-.3-2-.9-.5-.6-.6-1.4-.5-2.5l4.2-26.1c.1-1 .5-1.8 1-2.3.6-.5 1.4-.8 2.4-.8.9 0 1.6.3 2 1 .3.5.5 1.4.3 2.5l-.4 2.7-.1-1.5c.9-1.5 2-2.7 3.4-3.5 1.4-.9 3-1.3 4.9-1.3 1.8 0 3.3.4 4.6 1.3 1.3.8 2.4 2 3 3.4a12 12 0 0 1 1.2 5.4c0 2.6-.5 5-1.4 7.2-1 2-2.3 3.8-4 5s-3.9 2-6.3 2a9 9 0 0 1-4.8-1.3 6.8 6.8 0 0 1-2.8-3.8h.4l-1.7 10.7c-.2 1-.5 1.7-1 2.2-.6.4-1.4.6-2.4.6zm11.2-13c1.4 0 2.7-.4 3.6-1.2 1-.8 1.8-2 2.4-3.4.5-1.4.8-3 .8-4.7 0-2-.5-3.3-1.4-4.3-.9-1-2.1-1.6-3.7-1.6-1.4 0-2.7.5-3.7 1.3s-1.8 2-2.3 3.4a14 14 0 0 0-.8 4.7c0 1.9.4 3.3 1.3 4.4a5 5 0 0 0 3.8 1.4zm18.7 4.5c-1 0-1.7-.3-2.1-.9-.4-.6-.5-1.4-.4-2.5l2.8-17.8c.2-1 .6-1.7 1.1-2.2a4 4 0 0 1 2.3-.7c.9 0 1.5.3 2 .9.4.5.5 1.4.4 2.4l-.4 2.7h-.5a8.4 8.4 0 0 1 3.1-4.3c1.5-1 3.2-1.7 5.2-1.8 1 0 1.5 0 1.8.4.3.3.5.8.5 1.6 0 1-.3 1.8-.8 2.3-.4.5-1.2.8-2.2.9l-1.4.1c-2.1.2-3.6.9-4.5 2-1 1-1.6 2.5-1.9 4.4l-1.5 9.6c-.2 1-.5 1.7-1.1 2.1-.6.5-1.4.8-2.4.8zm23.4 0a8 8 0 0 1-6.7-3.5c-.7-1-1-2.3-1-3.6 0-1.7.4-3 1.3-4 1-1 2.3-1.9 4.3-2.4s4.4-.7 7.4-.7h3.8l-.5 3.4h-3c-1.9 0-3.4.1-4.5.3-1 .2-1.9.5-2.4 1a3 3 0 0 0-.7 2c0 1.1.4 2 1.1 2.6.8.6 1.7.9 2.8.9 1 0 2-.2 2.7-.7a6.2 6.2 0 0 0 3.2-4.7l1-5.7c.2-1.5 0-2.6-.8-3.4-.7-.8-2-1.2-3.7-1.2a13.8 13.8 0 0 0-6 1.3c-.7.3-1.2.4-1.7.3-.5-.1-.9-.3-1.2-.7a2 2 0 0 1-.5-1.1c0-.5.1-1 .4-1.4.3-.5.8-.8 1.5-1.2a21.4 21.4 0 0 1 8.2-1.7c2.6 0 4.6.5 6 1.4 1.4 1 2.4 2.2 2.9 3.8s.6 3.4.3 5.4l-1.7 10.6c-.1 1-.5 1.7-1 2.2-.6.5-1.3.8-2.2.8-.9 0-1.5-.3-2-.8-.4-.6-.5-1.4-.4-2.5l.5-3 .3 1c-.4 1.2-1 2.2-1.9 3a8 8 0 0 1-5.7 2.4zm20 0c-.8 0-1.4-.2-1.8-.7a2 2 0 0 1-.7-1.5c0-.6.3-1.2.9-1.8l9.2-9.6v2.6l-6-9c-.4-.8-.6-1.4-.5-2 0-.6.3-1.1.8-1.5.5-.4 1-.6 1.7-.6s1.3.2 1.8.5 1 .7 1.4 1.4l4.4 7H183l6.6-7.3c.5-.6 1-1 1.5-1.2.4-.3 1-.4 1.7-.4.8 0 1.4.2 1.8.6.5.4.7 1 .6 1.6 0 .6-.2 1.1-.8 1.7l-8.5 9.1v-2.7l6.3 9.7c.5.7.7 1.3.6 2-.1.6-.4 1.1-.9 1.5s-1 .6-1.8.6c-.6 0-1.1-.2-1.7-.5-.5-.3-1-.8-1.4-1.4l-5-7.6h2l-7.6 8-1.4 1c-.4.2-1 .4-1.7.4zm27 0c-.9 0-1.6-.3-2-1-.4-.6-.6-1.4-.4-2.5l2.8-17.6c.2-1 .5-1.7 1.1-2.2.6-.5 1.4-.8 2.3-.8 1 0 1.6.3 2 1 .5.5.6 1.4.5 2.5l-2.8 17.6c-.2 1-.6 1.7-1.1 2.2-.6.5-1.4.8-2.4.8zM205 30c-1 0-1.9-.2-2.4-.7-.5-.6-.7-1.3-.6-2.3a3 3 0 0 1 1.2-2.4c.7-.6 1.6-.9 2.8-.9 1 0 1.9.3 2.4.9.6.5.8 1.2.7 2.1-.2 1.1-.6 2-1.3 2.5-.7.6-1.6.8-2.8.8zm16.3 28.6a13 13 0 0 1-6.2-1.4 8.8 8.8 0 0 1-3.7-3.7 14.5 14.5 0 0 1 2-14.9c1-1.3 2.4-2.4 4-3.1a14.2 14.2 0 0 1 9.4-.8l3 1c.6.4 1 .9 1.2 1.3.3.5.3 1 .2 1.4 0 .5-.2.9-.5 1.3l-1 .7c-.5 0-1 0-1.5-.3a8.5 8.5 0 0 0-8-.4 7 7 0 0 0-2.2 2 11.4 11.4 0 0 0-1.7 6.2c0 1.8.4 3.3 1.3 4.4 1 1 2.5 1.6 4.5 1.6a8.2 8.2 0 0 0 4.1-1c.5-.3 1-.3 1.3-.2.4 0 .8.3 1 .6.4.3.5.7.6 1.2.1.4 0 .8-.1 1.2-.2.5-.6.9-1.2 1.2-.8.5-1.8 1-3 1.2-1.3.3-2.5.5-3.5.5zm-81.5 42.8c-1 0-1.7-.3-2.1-.8-.4-.6-.5-1.3-.4-2.3l4.5-28.5c.2-.9.5-1.5 1-2a3 3 0 0 1 2-.6 3 3 0 0 1 1.8.5c.4.3.8 1 1.1 1.7l8.1 21.6h-1.4l15.4-22c.4-.7.9-1.1 1.4-1.4.5-.3 1.1-.4 2-.4.8 0 1.5.3 2 .8.4.5.5 1.3.3 2.2L171 98.8a3 3 0 0 1-1 2c-.4.4-1.1.6-2 .6s-1.5-.3-2-.8c-.4-.6-.6-1.3-.5-2.3l3.5-21.9h1.1l-13 18.7c-.3.5-.7.8-1 1-.4.2-.9.3-1.4.3-.6 0-1.1-.1-1.5-.4-.4-.3-.7-.7-1-1.3l-7-18h1l-3.5 22a3 3 0 0 1-1 2c-.4.5-1 .7-2 .7zm49.8.2a13 13 0 0 1-6.1-1.3 9.8 9.8 0 0 1-5.4-9.2c0-2.6.5-5 1.6-7a12.3 12.3 0 0 1 11.2-6.7c2 0 3.6.3 4.9 1a8 8 0 0 1 3 2.7 9.6 9.6 0 0 1 1.6 3.8c.2 1.4.3 2.9.1 4.4 0 .7-.2 1-.5 1.3s-.7.3-1.2.3h-16l.5-3.5h13.3l-.8.8c.2-1.3.2-2.4-.1-3.4-.3-1-.8-1.9-1.6-2.5a5 5 0 0 0-3.2-.9A6.2 6.2 0 0 0 185 85c-.5 1-.9 2-1 3.2l-.3 1.4c-.4 2.4 0 4.2 1.1 5.6a7 7 0 0 0 5.3 2c1 0 1.9 0 3-.3 1-.2 1.8-.6 2.7-1 .6-.4 1.1-.5 1.5-.5.5 0 .9.3 1.1.6.3.3.5.6.6 1 0 .5 0 1-.3 1.4-.2.4-.5.8-1 1.2a12 12 0 0 1-4 1.6 16 16 0 0 1-4.2.5z"/>
</svg>
