<svg xmlns="http://www.w3.org/2000/svg" viewBox="0 0 250 125">
  <path fill="#f9f9f9" d="M0 0h250v125H0z"/>
  <path fill="#8fa9fe" d="M139.7 54.6h52.6V125h-52.6z"/>
  <path fill="#cbffce" d="M0 0h122v66.7H0z"/>
  <path fill="#dda2ff" d="M186.3 35.2H250v31.4h-63.7z"/>
  <path fill="#79bafe" d="M186.3 0H250v55.7h-63.7z"/>
  <path fill="#966cff" d="M186.3 54.7H250V125h-63.7z"/>
  <path fill="#fbbb00" fill-opacity=".6" d="M0 42.5h46.9V125H0z"/>
  <path fill="#ff10de" fill-opacity=".5" d="M41.3 52.6h117V125h-117z"/>
  <path fill="#0cdaff" fill-opacity=".4" d="M112.9 0h73.4v55.7H113z"/>
  <path fill="#ff1919" fill-opacity=".2" d="M12 42.5h77.9v50.7h-78z"/>
  <path fill="#ffff08" fill-opacity=".3" d="M0 0h16.7v72.3H0z"/>
  <path fill="#ffff08" fill-opacity=".5" d="M98.8 20.5h93.5v54.4H98.8z"/>
  <path fill="#242442" d="M24.9 60.2c-1 0-1.8-.2-2.3-.8-.5-.6-.7-1.4-.5-2.5l4-25.7c.2-1 .5-1.6 1-2 .6-.5 1.4-.8 2.3-.8h7.4c5 0 9 1.2 11.7 3.6 2.8 2.4 4.1 5.7 4.1 10 0 2.6-.3 5-1 7.2a16 16 0 0 1-9.2 9.6 20 20 0 0 1-8 1.4zm3.2-4.7h6.4c2.1 0 4-.4 5.5-1a10 10 0 0 0 3.7-2.9 12 12 0 0 0 2.2-4.2c.4-1.6.7-3.4.7-5.3 0-2.9-.8-5-2.5-6.6-1.6-1.5-4-2.3-7.3-2.3h-5.2zm31.7 13.2c-.7 0-1.3-.1-1.7-.5-.3-.3-.6-.7-.6-1.3 0-.5.2-1 .5-1.6l4.3-7-.4 2.3-5.2-19a3 3 0 0 1 0-1.9c.1-.6.4-1 .9-1.4a3 3 0 0 1 1.7-.5c.8 0 1.4.2 1.8.6.4.4.7 1 1 2l3.5 15h-1.4l8.9-15.6a4 4 0 0 1 1.3-1.5c.5-.3 1-.5 1.8-.5.7 0 1.2.2 1.6.5.5.3.7.8.7 1.3s0 1.1-.4 1.7L62.9 66.7a5 5 0 0 1-1.3 1.5c-.5.4-1 .5-1.8.5zm28-8A19 19 0 0 1 80 59c-.6-.3-1-.6-1.2-1l-.3-1.3c0-.5.2-.9.5-1.2.2-.3.6-.5 1-.6.4 0 1 0 1.5.3a16.3 16.3 0 0 0 6.1 1.4c1.4 0 2.5-.2 3.3-.7.7-.6 1.1-1.3 1.1-2.2a2 2 0 0 0-.6-1.5c-.5-.3-1-.6-1.9-.8l-4.1-.8a8 8 0 0 1-4-2 6.3 6.3 0 0 1-.2-7.4 8 8 0 0 1 3.4-2.6 14.7 14.7 0 0 1 12.1.7c.6.3 1 .7 1.2 1.1.2.4.2.9.1 1.3 0 .4-.2.7-.4 1-.3.3-.7.5-1.1.5s-1 0-1.5-.3c-.8-.5-1.6-.8-2.5-1l-2.7-.3c-1.5 0-2.6.3-3.4.8-.8.6-1.2 1.3-1.2 2.2 0 .6.2 1 .5 1.4.4.4 1 .7 1.7.8l4.1.9c1.9.4 3.2 1 4.2 2s1.4 2.2 1.4 3.6c0 2.3-.9 4.1-2.6 5.4a11 11 0 0 1-6.9 1.9zm14.5 8c-1 0-1.6-.3-2-.8-.4-.6-.5-1.4-.4-2.4l4-24.8c0-1 .4-1.7 1-2.2.5-.5 1.3-.7 2.2-.7.9 0 1.5.3 1.8.9.4.5.5 1.3.4 2.4l-.4 2.5-.1-1.3a9 9 0 0 1 3.3-3.4 9 9 0 0 1 4.6-1.2A8 8 0 0 1 121 39a7 7 0 0 1 3 3.3c.7 1.4 1 3 1 5 0 2.5-.4 4.8-1.3 6.9-1 2-2.2 3.6-3.8 4.8s-3.7 1.8-6 1.8c-1.7 0-3.2-.4-4.5-1.2-1.3-.8-2.2-2-2.7-3.6h.4l-1.6 10c-.2.9-.5 1.6-1 2-.5.4-1.3.6-2.2.6zm10.6-12.3a5 5 0 0 0 3.4-1.2c1-.8 1.7-1.8 2.3-3.2.5-1.3.7-2.8.7-4.5 0-1.8-.4-3.1-1.3-4-.8-1-2-1.5-3.5-1.5-1.4 0-2.5.4-3.5 1.2-1 .8-1.7 1.8-2.2 3.2-.5 1.3-.8 2.8-.8 4.5a6 6 0 0 0 1.3 4.1c.9 1 2 1.4 3.6 1.4zm17.7 4.2c-.9 0-1.6-.3-2-.8-.4-.6-.5-1.4-.3-2.4l2.6-16.9c.2-.9.5-1.6 1-2s1.3-.7 2.2-.7 1.5.3 1.9.8c.4.6.5 1.3.4 2.4l-.4 2.5h-.5a8 8 0 0 1 3-4.1 9 9 0 0 1 5-1.7c.8 0 1.3 0 1.6.4.3.3.5.8.5 1.5 0 1-.3 1.7-.7 2.2a4 4 0 0 1-2.1.8l-1.4.1c-2 .2-3.4.9-4.3 1.9-.9 1-1.5 2.4-1.8 4.2l-1.4 9.1a3 3 0 0 1-1 2c-.6.5-1.3.7-2.3.7zm22.2 0a7.7 7.7 0 0 1-6.4-3.3c-.7-1-1-2.2-1-3.4 0-1.6.5-2.9 1.3-3.8a8 8 0 0 1 4-2.2c2-.5 4.3-.7 7.1-.7h3.6l-.5 3.2h-2.8c-1.8 0-3.2 0-4.2.3-1.1.2-1.8.5-2.3 1-.5.4-.7 1-.7 1.8a3 3 0 0 0 1 2.5 4 4 0 0 0 2.7.8c1 0 1.8-.2 2.6-.6a5.8 5.8 0 0 0 3-4.5l.9-5.4c.2-1.4 0-2.5-.7-3.2-.7-.8-1.8-1.1-3.5-1.1a13 13 0 0 0-5.8 1.2 2 2 0 0 1-1.5.2c-.5 0-.9-.2-1.2-.5a2 2 0 0 1-.4-1.2c0-.4 0-.9.3-1.3.4-.4.8-.8 1.5-1a20.3 20.3 0 0 1 7.8-1.6c2.4 0 4.2.4 5.6 1.2 1.4.9 2.3 2 2.8 3.6.4 1.5.5 3.2.2 5.1l-1.6 10.1c0 1-.4 1.6-1 2.1a3 3 0 0 1-2 .7c-.8 0-1.5-.3-1.9-.8-.4-.5-.5-1.3-.3-2.3l.4-2.9.3 1a7.9 7.9 0 0 1-4.3 4.6 8 8 0 0 1-3 .5zm19 0c-.8 0-1.4-.2-1.8-.6a2 2 0 0 1-.6-1.4c0-.6.3-1.2.8-1.7l8.7-9.1v2.4l-5.6-8.6a3 3 0 0 1-.5-1.9c0-.5.3-1 .7-1.4.5-.3 1-.5 1.7-.5a3 3 0 0 1 1.6.5c.5.2 1 .7 1.4 1.3l4.2 6.6h-1.5l6.2-7a6 6 0 0 1 1.4-1c.4-.3 1-.4 1.6-.4.8 0 1.4.2 1.8.6.4.4.6.9.6 1.4 0 .6-.3 1.2-.8 1.7l-8.1 8.6v-2.5l6 9.1c.4.7.6 1.3.5 2 0 .5-.4 1-.8 1.4a3.2 3.2 0 0 1-3.3 0c-.5-.2-1-.7-1.3-1.3l-4.7-7.2h1.8l-7 7.5-1.4 1.1a3 3 0 0 1-1.6.4zm25.6 0c-.9 0-1.5-.3-2-.9-.4-.6-.5-1.4-.3-2.4l2.6-16.7c.2-1 .5-1.6 1-2 .6-.6 1.4-.8 2.3-.8.9 0 1.5.3 1.9.9.4.5.5 1.3.4 2.4l-2.7 16.7c-.1 1-.5 1.6-1 2.1s-1.3.7-2.2.7zm4.3-27c-1 0-1.8-.2-2.3-.7-.5-.5-.7-1.2-.6-2 .1-1.1.5-1.9 1.2-2.4a4 4 0 0 1 2.7-.8c1 0 1.8.2 2.3.8.5.4.7 1.1.6 2-.2 1-.6 1.8-1.2 2.4-.7.5-1.5.8-2.7.8zm15.5 27.1c-2.4 0-4.4-.4-6-1.3-1.5-.8-2.6-2-3.4-3.5-.8-1.5-1.2-3.3-1.2-5.3a15 15 0 0 1 3.1-8.9 11 11 0 0 1 3.8-2.9 13.5 13.5 0 0 1 8.8-.7c1.1.3 2 .6 2.8 1 .6.3 1 .7 1.3 1.2.2.4.3.8.2 1.3 0 .4-.2.8-.5 1.2a2 2 0 0 1-1 .6 2 2 0 0 1-1.4-.2 8 8 0 0 0-7.5-.4 7 7 0 0 0-3.4 4.7c-.3 1-.4 2-.4 3 0 1.8.4 3.2 1.3 4.2.8 1 2.3 1.6 4.3 1.6a7.8 7.8 0 0 0 3.8-1c.5-.2.9-.3 1.3-.2.4 0 .7.3 1 .6l.5 1.1c0 .4 0 .8-.2 1.2-.2.5-.5.8-1 1.2-.8.4-1.8.8-3 1s-2.3.5-3.2.5zm-77.3 40.6c-1 0-1.6-.3-2-.8-.4-.5-.5-1.2-.4-2l4.3-27.1a3 3 0 0 1 1-1.9c.4-.4 1-.6 1.9-.6.7 0 1.2.1 1.6.5.4.3.8.8 1.1 1.6l7.7 20.4h-1.3l14.5-20.8c.4-.6.9-1 1.4-1.3.5-.3 1-.4 1.8-.4s1.5.2 1.9.8c.4.5.5 1.2.4 2l-4.3 27.1a3 3 0 0 1-1 1.9c-.4.4-1 .6-1.9.6s-1.4-.3-1.9-.8-.5-1.2-.4-2l3.3-20.9h1l-12.3 17.7c-.3.5-.7.8-1 1-.4.2-.8.3-1.3.3-.6 0-1-.1-1.4-.4l-.9-1.3-6.7-17h1l-3.3 21a3 3 0 0 1-1 1.8c-.4.4-1 .6-1.8.6zm47.2.2a13 13 0 0 1-5.8-1.2 9.3 9.3 0 0 1-5.1-8.8c0-2.5.5-4.7 1.5-6.6 1-2 2.5-3.5 4.3-4.6s4-1.8 6.4-1.8c1.8 0 3.3.4 4.6 1 1.2.6 2.2 1.5 2.9 2.6.7 1 1.2 2.2 1.4 3.6s.3 2.7.2 4.1c0 .7-.2 1-.5 1.3a2 2 0 0 1-1.1.2h-15.2l.4-3.2h12.7l-.8.6c.2-1.2.1-2.2-.1-3.2-.3-1-.8-1.7-1.6-2.3-.7-.5-1.7-.8-3-.8a5.9 5.9 0 0 0-5.4 3.2c-.6 1-1 2-1 3l-.3 1.5c-.4 2.2 0 3.9 1 5.2 1.2 1.3 2.8 2 5 2 1 0 1.9-.2 2.8-.3 1-.2 1.9-.6 2.7-1 .5-.4 1-.5 1.4-.4.5 0 .8.2 1 .5.4.2.5.6.6 1 0 .4 0 .8-.2 1.3-.2.4-.6.8-1 1-1 .8-2.3 1.3-3.8 1.6-1.4.4-2.8.5-4 .5z"/>
</svg>
